<mxfile host="app.diagrams.net" modified="2020-07-09T16:16:32.154Z" agent="5.0 (Windows)" etag="aoPq_IS7J5I3M56MV2xX" version="13.3.4" type="github">
  <diagram id="4oNXfGrlBCdLffdz02zK" name="Page-1">
    <mxGraphModel dx="2048" dy="1813" grid="1" gridSize="10" guides="1" tooltips="1" connect="1" arrows="1" fold="1" page="1" pageScale="1" pageWidth="827" pageHeight="1169" math="0" shadow="0">
      <root>
        <mxCell id="0" />
        <mxCell id="1" parent="0" />
        <mxCell id="NXdl1-K4pTuj5u7-K4zi-31" style="edgeStyle=orthogonalEdgeStyle;rounded=0;orthogonalLoop=1;jettySize=auto;html=1;" parent="1" source="NXdl1-K4pTuj5u7-K4zi-1" target="NXdl1-K4pTuj5u7-K4zi-3" edge="1">
          <mxGeometry relative="1" as="geometry" />
        </mxCell>
        <mxCell id="NXdl1-K4pTuj5u7-K4zi-1" value="bosh kibana" style="whiteSpace=wrap;html=1;aspect=fixed;" parent="1" vertex="1">
          <mxGeometry x="70" y="599" width="80" height="80" as="geometry" />
        </mxCell>
        <mxCell id="NXdl1-K4pTuj5u7-K4zi-32" style="edgeStyle=orthogonalEdgeStyle;rounded=0;orthogonalLoop=1;jettySize=auto;html=1;" parent="1" source="NXdl1-K4pTuj5u7-K4zi-2" target="NXdl1-K4pTuj5u7-K4zi-3" edge="1">
          <mxGeometry relative="1" as="geometry" />
        </mxCell>
        <mxCell id="NXdl1-K4pTuj5u7-K4zi-2" value="bosh syslog" style="whiteSpace=wrap;html=1;aspect=fixed;" parent="1" vertex="1">
          <mxGeometry x="368" y="599" width="80" height="80" as="geometry" />
        </mxCell>
        <mxCell id="NXdl1-K4pTuj5u7-K4zi-3" value="bosh data ELK" style="shape=cylinder;whiteSpace=wrap;html=1;boundedLbl=1;backgroundOutline=1;" parent="1" vertex="1">
          <mxGeometry x="200" y="689" width="60" height="80" as="geometry" />
        </mxCell>
        <mxCell id="NXdl1-K4pTuj5u7-K4zi-5" style="edgeStyle=orthogonalEdgeStyle;rounded=0;orthogonalLoop=1;jettySize=auto;html=1;" parent="1" source="NXdl1-K4pTuj5u7-K4zi-4" target="NXdl1-K4pTuj5u7-K4zi-1" edge="1">
          <mxGeometry relative="1" as="geometry" />
        </mxCell>
        <mxCell id="NXdl1-K4pTuj5u7-K4zi-4" value="k8s ExternalName Service" style="ellipse;whiteSpace=wrap;html=1;" parent="1" vertex="1">
          <mxGeometry x="50" y="450" width="120" height="80" as="geometry" />
        </mxCell>
        <mxCell id="NXdl1-K4pTuj5u7-K4zi-7" style="edgeStyle=orthogonalEdgeStyle;rounded=0;orthogonalLoop=1;jettySize=auto;html=1;" parent="1" source="NXdl1-K4pTuj5u7-K4zi-6" target="NXdl1-K4pTuj5u7-K4zi-2" edge="1">
          <mxGeometry relative="1" as="geometry">
            <mxPoint x="408" y="599" as="targetPoint" />
          </mxGeometry>
        </mxCell>
        <mxCell id="NXdl1-K4pTuj5u7-K4zi-6" value="k8s ExternalName Service" style="ellipse;whiteSpace=wrap;html=1;" parent="1" vertex="1">
          <mxGeometry x="348" y="450" width="120" height="80" as="geometry" />
        </mxCell>
        <mxCell id="NXdl1-K4pTuj5u7-K4zi-25" style="edgeStyle=orthogonalEdgeStyle;rounded=0;orthogonalLoop=1;jettySize=auto;html=1;" parent="1" source="NXdl1-K4pTuj5u7-K4zi-12" target="NXdl1-K4pTuj5u7-K4zi-19" edge="1">
          <mxGeometry relative="1" as="geometry" />
        </mxCell>
        <mxCell id="NXdl1-K4pTuj5u7-K4zi-42" style="edgeStyle=orthogonalEdgeStyle;rounded=0;orthogonalLoop=1;jettySize=auto;html=1;entryX=0.5;entryY=0;entryDx=0;entryDy=0;" parent="1" source="NXdl1-K4pTuj5u7-K4zi-12" target="NXdl1-K4pTuj5u7-K4zi-39" edge="1">
          <mxGeometry relative="1" as="geometry" />
        </mxCell>
        <mxCell id="NXdl1-K4pTuj5u7-K4zi-12" value="bosh ops gorouters" style="shape=process;whiteSpace=wrap;html=1;backgroundOutline=1;" parent="1" vertex="1">
          <mxGeometry x="50" y="100" width="120" height="60" as="geometry" />
        </mxCell>
        <mxCell id="NXdl1-K4pTuj5u7-K4zi-14" style="edgeStyle=orthogonalEdgeStyle;rounded=0;orthogonalLoop=1;jettySize=auto;html=1;exitX=0.5;exitY=1;exitDx=0;exitDy=0;" parent="1" source="NXdl1-K4pTuj5u7-K4zi-13" target="NXdl1-K4pTuj5u7-K4zi-12" edge="1">
          <mxGeometry relative="1" as="geometry" />
        </mxCell>
        <mxCell id="NXdl1-K4pTuj5u7-K4zi-13" value="bosh ops relay" style="shape=process;whiteSpace=wrap;html=1;backgroundOutline=1;" parent="1" vertex="1">
          <mxGeometry x="50" y="10" width="120" height="60" as="geometry" />
        </mxCell>
        <mxCell id="NXdl1-K4pTuj5u7-K4zi-17" value="k8s public worker" style="shape=process;whiteSpace=wrap;html=1;backgroundOutline=1;" parent="1" vertex="1">
          <mxGeometry x="367" y="130" width="249" height="60" as="geometry" />
        </mxCell>
        <mxCell id="NXdl1-K4pTuj5u7-K4zi-18" value="k8s public worker" style="shape=process;whiteSpace=wrap;html=1;backgroundOutline=1;" parent="1" vertex="1">
          <mxGeometry x="760" y="130" width="240" height="60" as="geometry" />
        </mxCell>
        <mxCell id="NXdl1-K4pTuj5u7-K4zi-26" style="edgeStyle=orthogonalEdgeStyle;rounded=0;orthogonalLoop=1;jettySize=auto;html=1;entryX=0.5;entryY=0;entryDx=0;entryDy=0;" parent="1" source="NXdl1-K4pTuj5u7-K4zi-19" target="NXdl1-K4pTuj5u7-K4zi-4" edge="1">
          <mxGeometry relative="1" as="geometry" />
        </mxCell>
        <mxCell id="NXdl1-K4pTuj5u7-K4zi-19" value="traefik IngressRoute" style="ellipse;whiteSpace=wrap;html=1;" parent="1" vertex="1">
          <mxGeometry x="50" y="220" width="120" height="80" as="geometry" />
        </mxCell>
        <mxCell id="NXdl1-K4pTuj5u7-K4zi-28" style="edgeStyle=orthogonalEdgeStyle;rounded=0;orthogonalLoop=1;jettySize=auto;html=1;" parent="1" source="NXdl1-K4pTuj5u7-K4zi-20" target="NXdl1-K4pTuj5u7-K4zi-27" edge="1">
          <mxGeometry relative="1" as="geometry" />
        </mxCell>
        <mxCell id="NXdl1-K4pTuj5u7-K4zi-20" value="&lt;div&gt;Service&lt;/div&gt;&lt;div&gt;type LoadBalancer&lt;/div&gt;&lt;div&gt;annotation external dns&lt;br&gt;&lt;/div&gt;" style="ellipse;whiteSpace=wrap;html=1;" parent="1" vertex="1">
          <mxGeometry x="348" y="210" width="120" height="80" as="geometry" />
        </mxCell>
        <mxCell id="NXdl1-K4pTuj5u7-K4zi-30" style="edgeStyle=orthogonalEdgeStyle;rounded=0;orthogonalLoop=1;jettySize=auto;html=1;" parent="1" source="NXdl1-K4pTuj5u7-K4zi-21" target="NXdl1-K4pTuj5u7-K4zi-20" edge="1">
          <mxGeometry relative="1" as="geometry" />
        </mxCell>
        <mxCell id="NXdl1-K4pTuj5u7-K4zi-21" value="vip" style="rhombus;whiteSpace=wrap;html=1;" parent="1" vertex="1">
          <mxGeometry x="368" width="80" height="80" as="geometry" />
        </mxCell>
        <mxCell id="NXdl1-K4pTuj5u7-K4zi-22" value="" style="endArrow=none;html=1;" parent="1" edge="1">
          <mxGeometry width="50" height="50" relative="1" as="geometry">
            <mxPoint x="10" y="-20" as="sourcePoint" />
            <mxPoint x="1220" y="-20" as="targetPoint" />
          </mxGeometry>
        </mxCell>
        <mxCell id="NXdl1-K4pTuj5u7-K4zi-24" style="edgeStyle=orthogonalEdgeStyle;rounded=0;orthogonalLoop=1;jettySize=auto;html=1;entryX=0.5;entryY=0;entryDx=0;entryDy=0;" parent="1" source="NXdl1-K4pTuj5u7-K4zi-23" target="NXdl1-K4pTuj5u7-K4zi-13" edge="1">
          <mxGeometry relative="1" as="geometry" />
        </mxCell>
        <mxCell id="NXdl1-K4pTuj5u7-K4zi-23" value="Actor" style="shape=umlActor;verticalLabelPosition=bottom;labelBackgroundColor=#ffffff;verticalAlign=top;html=1;outlineConnect=0;" parent="1" vertex="1">
          <mxGeometry x="80" y="-150" width="30" height="60" as="geometry" />
        </mxCell>
        <mxCell id="NXdl1-K4pTuj5u7-K4zi-29" style="edgeStyle=orthogonalEdgeStyle;rounded=0;orthogonalLoop=1;jettySize=auto;html=1;entryX=0.5;entryY=0;entryDx=0;entryDy=0;" parent="1" source="NXdl1-K4pTuj5u7-K4zi-27" target="NXdl1-K4pTuj5u7-K4zi-6" edge="1">
          <mxGeometry relative="1" as="geometry" />
        </mxCell>
        <mxCell id="NXdl1-K4pTuj5u7-K4zi-27" value="K8S Pod - envoy" style="rounded=1;whiteSpace=wrap;html=1;" parent="1" vertex="1">
          <mxGeometry x="348" y="330" width="120" height="60" as="geometry" />
        </mxCell>
        <mxCell id="NXdl1-K4pTuj5u7-K4zi-33" value="" style="shape=link;html=1;" parent="1" edge="1">
          <mxGeometry width="50" height="50" relative="1" as="geometry">
            <mxPoint x="4" y="550" as="sourcePoint" />
            <mxPoint x="1230" y="550" as="targetPoint" />
          </mxGeometry>
        </mxCell>
        <mxCell id="NXdl1-K4pTuj5u7-K4zi-34" value="" style="shape=link;html=1;" parent="1" edge="1">
          <mxGeometry width="50" height="50" relative="1" as="geometry">
            <mxPoint x="-20" y="189.17000000000002" as="sourcePoint" />
            <mxPoint x="1240" y="189" as="targetPoint" />
          </mxGeometry>
        </mxCell>
        <mxCell id="NXdl1-K4pTuj5u7-K4zi-41" style="edgeStyle=orthogonalEdgeStyle;rounded=0;orthogonalLoop=1;jettySize=auto;html=1;entryX=1;entryY=0.75;entryDx=0;entryDy=0;" parent="1" source="NXdl1-K4pTuj5u7-K4zi-35" target="NXdl1-K4pTuj5u7-K4zi-13" edge="1">
          <mxGeometry relative="1" as="geometry" />
        </mxCell>
        <mxCell id="NXdl1-K4pTuj5u7-K4zi-65" style="edgeStyle=orthogonalEdgeStyle;rounded=0;orthogonalLoop=1;jettySize=auto;html=1;" parent="1" source="NXdl1-K4pTuj5u7-K4zi-35" target="NXdl1-K4pTuj5u7-K4zi-63" edge="1">
          <mxGeometry relative="1" as="geometry" />
        </mxCell>
        <mxCell id="NXdl1-K4pTuj5u7-K4zi-35" value="&lt;div&gt;Client Plaform&lt;/div&gt;&lt;div&gt;cf&lt;br&gt;&lt;/div&gt;" style="shape=cube;whiteSpace=wrap;html=1;boundedLbl=1;backgroundOutline=1;darkOpacity=0.05;darkOpacity2=0.1;" parent="1" vertex="1">
          <mxGeometry x="270" y="-170" width="300" height="80" as="geometry" />
        </mxCell>
        <mxCell id="NXdl1-K4pTuj5u7-K4zi-37" style="edgeStyle=orthogonalEdgeStyle;rounded=0;orthogonalLoop=1;jettySize=auto;html=1;entryX=0.5;entryY=0;entryDx=0;entryDy=0;" parent="1" source="NXdl1-K4pTuj5u7-K4zi-36" target="NXdl1-K4pTuj5u7-K4zi-21" edge="1">
          <mxGeometry relative="1" as="geometry" />
        </mxCell>
        <mxCell id="NXdl1-K4pTuj5u7-K4zi-36" value="syslog drain Service" style="rounded=1;whiteSpace=wrap;html=1;" parent="1" vertex="1">
          <mxGeometry x="362" y="-100" width="92" height="30" as="geometry" />
        </mxCell>
        <mxCell id="NXdl1-K4pTuj5u7-K4zi-38" value="&lt;div&gt;k8S Pod - &lt;br&gt;&lt;/div&gt;&lt;div&gt;simplest OSB broker&lt;br&gt;&lt;/div&gt;" style="rounded=1;whiteSpace=wrap;html=1;" parent="1" vertex="1">
          <mxGeometry x="190" y="330" width="120" height="60" as="geometry" />
        </mxCell>
        <mxCell id="NXdl1-K4pTuj5u7-K4zi-40" style="edgeStyle=orthogonalEdgeStyle;rounded=0;orthogonalLoop=1;jettySize=auto;html=1;" parent="1" source="NXdl1-K4pTuj5u7-K4zi-39" target="NXdl1-K4pTuj5u7-K4zi-38" edge="1">
          <mxGeometry relative="1" as="geometry" />
        </mxCell>
        <mxCell id="NXdl1-K4pTuj5u7-K4zi-39" value="traefik IngressRoute" style="ellipse;whiteSpace=wrap;html=1;" parent="1" vertex="1">
          <mxGeometry x="190" y="220" width="120" height="80" as="geometry" />
        </mxCell>
        <mxCell id="NXdl1-K4pTuj5u7-K4zi-43" value="&lt;div&gt;metallb&lt;/div&gt;&lt;div&gt;vip Pool&lt;br&gt;&lt;/div&gt;" style="ellipse;shape=cloud;whiteSpace=wrap;html=1;" parent="1" vertex="1">
          <mxGeometry x="590" y="380" width="120" height="80" as="geometry" />
        </mxCell>
        <mxCell id="NXdl1-K4pTuj5u7-K4zi-44" value="" style="endArrow=none;html=1;" parent="1" edge="1">
          <mxGeometry width="50" height="50" relative="1" as="geometry">
            <mxPoint x="530" y="710.83" as="sourcePoint" />
            <mxPoint x="530" y="210" as="targetPoint" />
          </mxGeometry>
        </mxCell>
        <mxCell id="NXdl1-K4pTuj5u7-K4zi-48" style="edgeStyle=orthogonalEdgeStyle;rounded=0;orthogonalLoop=1;jettySize=auto;html=1;" parent="1" source="NXdl1-K4pTuj5u7-K4zi-45" target="NXdl1-K4pTuj5u7-K4zi-46" edge="1">
          <mxGeometry relative="1" as="geometry" />
        </mxCell>
        <mxCell id="NXdl1-K4pTuj5u7-K4zi-50" style="edgeStyle=orthogonalEdgeStyle;rounded=0;orthogonalLoop=1;jettySize=auto;html=1;" parent="1" source="NXdl1-K4pTuj5u7-K4zi-45" target="NXdl1-K4pTuj5u7-K4zi-49" edge="1">
          <mxGeometry relative="1" as="geometry" />
        </mxCell>
        <mxCell id="NXdl1-K4pTuj5u7-K4zi-45" value="K8S Pod - metallb controller" style="rounded=1;whiteSpace=wrap;html=1;" parent="1" vertex="1">
          <mxGeometry x="590" y="330" width="120" height="60" as="geometry" />
        </mxCell>
        <mxCell id="NXdl1-K4pTuj5u7-K4zi-46" value="K8S DaemonSet - metallb speaker" style="rounded=1;whiteSpace=wrap;html=1;" parent="1" vertex="1">
          <mxGeometry x="590" y="210" width="120" height="60" as="geometry" />
        </mxCell>
        <mxCell id="NXdl1-K4pTuj5u7-K4zi-49" value="K8S DaemonSet - metallb speaker" style="rounded=1;whiteSpace=wrap;html=1;" parent="1" vertex="1">
          <mxGeometry x="730" y="210" width="120" height="60" as="geometry" />
        </mxCell>
        <mxCell id="NXdl1-K4pTuj5u7-K4zi-57" value="" style="curved=1;endArrow=classic;html=1;" parent="1" source="NXdl1-K4pTuj5u7-K4zi-20" edge="1">
          <mxGeometry width="50" height="50" relative="1" as="geometry">
            <mxPoint x="560" y="430" as="sourcePoint" />
            <mxPoint x="610" y="380" as="targetPoint" />
            <Array as="points">
              <mxPoint x="610" y="430" />
              <mxPoint x="550" y="360" />
              <mxPoint x="600" y="390" />
            </Array>
          </mxGeometry>
        </mxCell>
        <mxCell id="NXdl1-K4pTuj5u7-K4zi-60" style="edgeStyle=orthogonalEdgeStyle;rounded=0;orthogonalLoop=1;jettySize=auto;html=1;" parent="1" source="NXdl1-K4pTuj5u7-K4zi-58" target="NXdl1-K4pTuj5u7-K4zi-59" edge="1">
          <mxGeometry relative="1" as="geometry" />
        </mxCell>
        <mxCell id="NXdl1-K4pTuj5u7-K4zi-58" value="K8s POD - external DNS" style="rounded=1;whiteSpace=wrap;html=1;" parent="1" vertex="1">
          <mxGeometry x="770" y="440" width="120" height="60" as="geometry" />
        </mxCell>
        <mxCell id="NXdl1-K4pTuj5u7-K4zi-59" value="&lt;div&gt;K8s Pod&lt;/div&gt;&lt;div&gt;PowerDNS / coredns&lt;br&gt;&lt;/div&gt;" style="rounded=1;whiteSpace=wrap;html=1;" parent="1" vertex="1">
          <mxGeometry x="900" y="330" width="120" height="60" as="geometry" />
        </mxCell>
        <mxCell id="NXdl1-K4pTuj5u7-K4zi-62" value="" style="curved=1;endArrow=classic;html=1;" parent="1" source="NXdl1-K4pTuj5u7-K4zi-20" target="NXdl1-K4pTuj5u7-K4zi-58" edge="1">
          <mxGeometry width="50" height="50" relative="1" as="geometry">
            <mxPoint x="590" y="340" as="sourcePoint" />
            <mxPoint x="640" y="290" as="targetPoint" />
            <Array as="points">
              <mxPoint x="610" y="530" />
              <mxPoint x="720" y="550" />
              <mxPoint x="730" y="480" />
            </Array>
          </mxGeometry>
        </mxCell>
        <mxCell id="NXdl1-K4pTuj5u7-K4zi-64" style="edgeStyle=orthogonalEdgeStyle;rounded=0;orthogonalLoop=1;jettySize=auto;html=1;entryX=0.5;entryY=0;entryDx=0;entryDy=0;" parent="1" source="NXdl1-K4pTuj5u7-K4zi-63" target="NXdl1-K4pTuj5u7-K4zi-59" edge="1">
          <mxGeometry relative="1" as="geometry" />
        </mxCell>
        <mxCell id="NXdl1-K4pTuj5u7-K4zi-63" value="&lt;div&gt;Service&lt;/div&gt;&lt;div&gt;type LoadBalancer&lt;/div&gt;&lt;div&gt;(fixed vip)&lt;br&gt;&lt;/div&gt;" style="ellipse;whiteSpace=wrap;html=1;" parent="1" vertex="1">
          <mxGeometry x="900" y="210" width="120" height="80" as="geometry" />
        </mxCell>
        <mxCell id="2qVzmIRJDRd2nHvHut32-2" value="vip" style="rhombus;whiteSpace=wrap;html=1;" vertex="1" parent="1">
          <mxGeometry x="368" width="80" height="80" as="geometry" />
        </mxCell>
        <mxCell id="2qVzmIRJDRd2nHvHut32-4" value="vip" style="rhombus;whiteSpace=wrap;html=1;" vertex="1" parent="1">
          <mxGeometry x="910" y="20" width="80" height="80" as="geometry" />
        </mxCell>
      </root>
    </mxGraphModel>
  </diagram>
</mxfile>
